<?xml version="1.0" ?><svg height="60px" version="1.1" viewBox="0 0 60 60" width="60px" xmlns="http://www.w3.org/2000/svg" xmlns:sketch="http://www.bohemiancoding.com/sketch/ns" xmlns:xlink="http://www.w3.org/1999/xlink"><title/><defs/><g fill="none" fill-rule="evenodd" id="black" stroke="none" stroke-width="1"><g id="playstation"><path d="M30,60 C46.5685433,60 60,46.5685433 60,30 C60,13.4314567 46.5685433,0 30,0 C13.4314567,0 0,13.4314567 0,30 C0,46.5685433 13.4314567,60 30,60 Z" fill="#000000"/><path d="M25.3843337,41.5797307 L25.3843337,14.9380258 C25.3843337,14.9380258 38.0313946,17.1497143 39.7171508,22.4764286 C41.4037276,27.8035714 38.7756053,31.254 37.8541625,31.3551429 C35.2797842,31.6354286 34.6827111,29.8146409 34.6827111,29.8146409 L34.6827111,21.9933613 L31.1752554,20.8934608 L31.1752554,45.0135216 L25.3843337,41.5797307 Z M33.5539363,41.2148571 L33.5539363,44.1544757 C33.5539363,44.1544757 46.1516608,39.9522857 48.1040857,38.2238571 C50.0569209,36.495 43.5333847,32.1964286 40.0281275,33.0368571 C40.0281275,33.0368571 36.9299617,33.0680684 33.5539363,34.607497 C33.521936,34.6216399 33.5539363,37.5184513 33.5539363,37.5184513 L41.4919334,35.5602857 L44.5089817,36.9621429 L33.5539363,41.2148571 Z M18.7721729,41.8684286 C14.911631,41.8212857 11.4945797,40.6997143 11.5388877,38.2705714 C11.5827855,35.8405714 16.7276964,33.3705291 23.117488,32.2489577 L23.117488,35.5689416 L17.5290866,37.3354286 C17.5290866,37.3354286 16.3672317,38.8791429 17.9290896,38.9241429 C21.4786548,39.0278571 23.117488,38.2705714 23.117488,38.2705714 L23.117488,41.2271822 C23.117488,41.2271822 22.6327147,41.9155714 18.7721729,41.8684286 Z" fill="#FFFFFF"/></g></g></svg>